ffmpeg started on 2025-05-28 at 21:54:37
Report written to "D:\Convert\FFMetrics\reports\psnr_report-6.txt"
Log level: 32
Command line:
ffmpeg -hide_banner -nostdin -i "G:\\\xc0\xed\xe8\xec\xe5\\\xce\xed\xe3\xee\xe8\xed\xe3\xe8\\!_36_\xce\xf1\xe5\xed\xfc_2024\\JamClub\\\xcc\xe5\xf5\xe0\xed\xe8\xf7\xe5\xf1\xea\xe8\xe5 \xf0\xf3\xea\xe8\\JamClub_Mecha_ude_TV_03_1080p_HEVC.mkv" -i "G:\\\xc0\xed\xe8\xec\xe5\\\xce\xed\xe3\xee\xe8\xed\xe3\xe8\\!_36_\xce\xf1\xe5\xed\xfc_2024\\JamClub\\\xcc\xe5\xf5\xe0\xed\xe8\xf7\xe5\xf1\xea\xe8\xe5 \xf0\xf3\xea\xe8\\JamClub_Mecha_ude_TV_03_1080p.mp4" -lavfi "[0:v]settb=AVTB,setpts=PTS-STARTPTS,format=pix_fmts=yuv420p10,fps=24000/1001,scale=1920:1080:flags=bicubic[main];[1:v]settb=AVTB,setpts=PTS-STARTPTS,format=pix_fmts=yuv420p,fps=24000/1001,scale=1920:1080:flags=bicubic[ref];[main][ref]psnr=eof_action=endall:stats_file='D\\:/Convert/FFMetrics/logs/psnr_logfile-6.txt'" -f null -
Input #0, matroska,webm, from 'G:\Аниме\Онгоинги\!_36_Осень_2024\JamClub\Механические руки\JamClub_Mecha_ude_TV_03_1080p_HEVC.mkv':
  Metadata:
    COMPATIBLE_BRANDS: isomiso2avc1mp41
    MAJOR_BRAND     : isom
    MINOR_VERSION   : 512
    ENCODER         : Lavf61.7.100
  Duration: 00:24:04.27, start: -0.001000, bitrate: 1494 kb/s
  Stream #0:0: Video: hevc (Main 10), yuv420p10le(tv, bt709, progressive), 1920x1080 [SAR 1:1 DAR 16:9], 23.98 fps, 23.98 tbr, 1k tbn (default)
      Metadata:
        HANDLER_NAME    : VideoHandler
        VENDOR_ID       : [0][0][0][0]
        ENCODER         : Lavc61.19.100 libx265
        BPS             : 1296673
        DURATION        : 00:24:04.150708333
        NUMBER_OF_FRAMES: 34625
        NUMBER_OF_BYTES : 234073915
        _STATISTICS_WRITING_APP: mkvpropedit v66.0.0 ('Josie') 64-bit
        _STATISTICS_WRITING_DATE_UTC: 2025-05-28 14:46:07
        _STATISTICS_TAGS: BPS DURATION NUMBER_OF_FRAMES NUMBER_OF_BYTES
  Stream #0:1(eng): Audio: aac (LC), 48000 Hz, stereo, fltp (default)
      Metadata:
        HANDLER_NAME    : SoundHandler
        VENDOR_ID       : [0][0][0][0]
        ENCODER         : Lavc61.19.100 aac
        BPS             : 193803
        DURATION        : 00:24:04.227000000
        NUMBER_OF_FRAMES: 67699
        NUMBER_OF_BYTES : 34986950
        _STATISTICS_WRITING_APP: mkvpropedit v66.0.0 ('Josie') 64-bit
        _STATISTICS_WRITING_DATE_UTC: 2025-05-28 14:46:07
        _STATISTICS_TAGS: BPS DURATION NUMBER_OF_FRAMES NUMBER_OF_BYTES
Input #1, mov,mp4,m4a,3gp,3g2,mj2, from 'G:\Аниме\Онгоинги\!_36_Осень_2024\JamClub\Механические руки\JamClub_Mecha_ude_TV_03_1080p.mp4':
  Metadata:
    major_brand     : isom
    minor_version   : 512
    compatible_brands: isomiso2avc1mp41
    encoder         : Lavf60.16.100
  Duration: 00:24:04.25, start: 0.000000, bitrate: 3950 kb/s
  Stream #1:0[0x1](und): Video: h264 (High) (avc1 / 0x31637661), yuv420p(progressive), 1920x1080 [SAR 1:1 DAR 16:9], 3752 kb/s, 23.98 fps, 23.98 tbr, 90k tbn (default)
      Metadata:
        handler_name    : VideoHandler
        vendor_id       : [0][0][0][0]
  Stream #1:1[0x2](eng): Audio: aac (LC) (mp4a / 0x6134706D), 48000 Hz, stereo, fltp, 191 kb/s (default)
      Metadata:
        handler_name    : SoundHandler
        vendor_id       : [0][0][0][0]
Stream mapping:
  Stream #0:0 (hevc) -> settb:default
  Stream #1:0 (h264) -> settb:default
  psnr:default -> Stream #0:0 (wrapped_avframe)
  Stream #0:1 -> #0:1 (aac (native) -> pcm_s16le (native))
Output #0, null, to 'pipe:':
  Metadata:
    COMPATIBLE_BRANDS: isomiso2avc1mp41
    MAJOR_BRAND     : isom
    MINOR_VERSION   : 512
    encoder         : Lavf61.7.100
  Stream #0:0: Video: wrapped_avframe, yuv420p10le(tv, bt709, progressive), 1920x1080 [SAR 1:1 DAR 16:9], q=2-31, 200 kb/s, 23.98 fps, 23.98 tbn
      Metadata:
        encoder         : Lavc61.19.100 wrapped_avframe
  Stream #0:1(eng): Audio: pcm_s16le, 48000 Hz, stereo, s16, 1536 kb/s (default)
      Metadata:
        HANDLER_NAME    : SoundHandler
        VENDOR_ID       : [0][0][0][0]
        _STATISTICS_TAGS: BPS DURATION NUMBER_OF_FRAMES NUMBER_OF_BYTES
        BPS             : 193803
        DURATION        : 00:24:04.227000000
        NUMBER_OF_FRAMES: 67699
        NUMBER_OF_BYTES : 34986950
        _STATISTICS_WRITING_APP: mkvpropedit v66.0.0 ('Josie') 64-bit
        _STATISTICS_WRITING_DATE_UTC: 2025-05-28 14:46:07
        encoder         : Lavc61.19.100 pcm_s16le
frame=  105 fps=0.0 q=-0.0 size=N/A time=00:00:04.37 bitrate=N/A speed= 8.6x    frame=  265 fps=257 q=-0.0 size=N/A time=00:00:11.05 bitrate=N/A speed=10.7x    frame=  460 fps=299 q=-0.0 size=N/A time=00:00:19.18 bitrate=N/A speed=12.5x    frame=  745 fps=361 q=-0.0 size=N/A time=00:00:31.07 bitrate=N/A speed=15.1x    frame=  986 fps=382 q=-0.0 size=N/A time=00:00:41.12 bitrate=N/A speed=15.9x    frame= 1173 fps=380 q=-0.0 size=N/A time=00:00:48.92 bitrate=N/A speed=15.8x    frame= 1352 fps=374 q=-0.0 size=N/A time=00:00:56.38 bitrate=N/A speed=15.6x    frame= 1577 fps=383 q=-0.0 size=N/A time=00:01:05.77 bitrate=N/A speed=  16x    frame= 1738 fps=375 q=-0.0 size=N/A time=00:01:12.53 bitrate=N/A speed=15.7x    frame= 1902 fps=369 q=-0.0 size=N/A time=00:01:19.32 bitrate=N/A speed=15.4x    frame= 2049 fps=361 q=-0.0 size=N/A time=00:01:25.46 bitrate=N/A speed=15.1x    frame= 2250 fps=364 q=-0.0 size=N/A time=00:01:33.84 bitrate=N/A speed=15.2x    frame= 2439 fps=364 q=-0.0 size=N/A time=00:01:41.72 bitrate=N/A speed=15.2x    frame= 2685 fps=372 q=-0.0 size=N/A time=00:01:51.98 bitrate=N/A speed=15.5x    frame= 2926 fps=379 q=-0.0 size=N/A time=00:02:02.03 bitrate=N/A speed=15.8x    frame= 3188 fps=387 q=-0.0 size=N/A time=00:02:12.96 bitrate=N/A speed=16.1x    frame= 3458 fps=394 q=-0.0 size=N/A time=00:02:24.22 bitrate=N/A speed=16.4x    frame= 3712 fps=400 q=-0.0 size=N/A time=00:02:34.82 bitrate=N/A speed=16.7x    frame= 3978 fps=406 q=-0.0 size=N/A time=00:02:45.91 bitrate=N/A speed=16.9x    frame= 4218 fps=409 q=-0.0 size=N/A time=00:02:55.92 bitrate=N/A speed=  17x    frame= 4475 fps=413 q=-0.0 size=N/A time=00:03:06.64 bitrate=N/A speed=17.2x    frame= 4750 fps=419 q=-0.0 size=N/A time=00:03:18.11 bitrate=N/A speed=17.5x    frame= 5021 fps=424 q=-0.0 size=N/A time=00:03:29.41 bitrate=N/A speed=17.7x    frame= 5280 fps=427 q=-0.0 size=N/A time=00:03:40.22 bitrate=N/A speed=17.8x    frame= 5563 fps=432 q=-0.0 size=N/A time=00:03:52.02 bitrate=N/A speed=  18x    frame= 5831 fps=435 q=-0.0 size=N/A time=00:04:03.20 bitrate=N/A speed=18.1x    frame= 6078 fps=436 q=-0.0 size=N/A time=00:04:13.50 bitrate=N/A speed=18.2x    frame= 6343 fps=439 q=-0.0 size=N/A time=00:04:24.55 bitrate=N/A speed=18.3x    frame= 6592 fps=441 q=-0.0 size=N/A time=00:04:34.94 bitrate=N/A speed=18.4x    frame= 6848 fps=443 q=-0.0 size=N/A time=00:04:45.61 bitrate=N/A speed=18.5x    frame= 7074 fps=443 q=-0.0 size=N/A time=00:04:55.04 bitrate=N/A speed=18.5x    frame= 7346 fps=445 q=-0.0 size=N/A time=00:05:06.38 bitrate=N/A speed=18.6x    frame= 7624 fps=448 q=-0.0 size=N/A time=00:05:17.98 bitrate=N/A speed=18.7x    frame= 7836 fps=447 q=-0.0 size=N/A time=00:05:26.82 bitrate=N/A speed=18.6x    frame= 8114 fps=449 q=-0.0 size=N/A time=00:05:38.42 bitrate=N/A speed=18.7x    frame= 8390 fps=452 q=-0.0 size=N/A time=00:05:49.93 bitrate=N/A speed=18.9x    frame= 8678 fps=455 q=-0.0 size=N/A time=00:06:01.94 bitrate=N/A speed=  19x    frame= 8892 fps=454 q=-0.0 size=N/A time=00:06:10.87 bitrate=N/A speed=18.9x    frame= 9147 fps=455 q=-0.0 size=N/A time=00:06:21.50 bitrate=N/A speed=  19x    frame= 9413 fps=456 q=-0.0 size=N/A time=00:06:32.60 bitrate=N/A speed=  19x    frame= 9674 fps=458 q=-0.0 size=N/A time=00:06:43.48 bitrate=N/A speed=19.1x    frame= 9937 fps=459 q=-0.0 size=N/A time=00:06:54.45 bitrate=N/A speed=19.1x    frame=10223 fps=461 q=-0.0 size=N/A time=00:07:06.38 bitrate=N/A speed=19.2x    frame=10494 fps=463 q=-0.0 size=N/A time=00:07:17.68 bitrate=N/A speed=19.3x    frame=10779 fps=465 q=-0.0 size=N/A time=00:07:29.57 bitrate=N/A speed=19.4x    frame=11057 fps=466 q=-0.0 size=N/A time=00:07:41.16 bitrate=N/A speed=19.5x    frame=11318 fps=467 q=-0.0 size=N/A time=00:07:52.05 bitrate=N/A speed=19.5x    frame=11582 fps=468 q=-0.0 size=N/A time=00:08:03.06 bitrate=N/A speed=19.5x    frame=11856 fps=469 q=-0.0 size=N/A time=00:08:14.49 bitrate=N/A speed=19.6x    frame=12117 fps=470 q=-0.0 size=N/A time=00:08:25.37 bitrate=N/A speed=19.6x    frame=12347 fps=470 q=-0.0 size=N/A time=00:08:34.97 bitrate=N/A speed=19.6x    frame=12606 fps=470 q=-0.0 size=N/A time=00:08:45.77 bitrate=N/A speed=19.6x    frame=12896 fps=472 q=-0.0 size=N/A time=00:08:57.87 bitrate=N/A speed=19.7x    frame=13172 fps=473 q=-0.0 size=N/A time=00:09:09.38 bitrate=N/A speed=19.7x    frame=13422 fps=473 q=-0.0 size=N/A time=00:09:19.80 bitrate=N/A speed=19.7x    frame=13633 fps=472 q=-0.0 size=N/A time=00:09:28.60 bitrate=N/A speed=19.7x    frame=13866 fps=471 q=-0.0 size=N/A time=00:09:38.32 bitrate=N/A speed=19.7x    frame=14068 fps=470 q=-0.0 size=N/A time=00:09:46.75 bitrate=N/A speed=19.6x    frame=14297 fps=470 q=-0.0 size=N/A time=00:09:56.30 bitrate=N/A speed=19.6x    frame=14504 fps=468 q=-0.0 size=N/A time=00:10:04.93 bitrate=N/A speed=19.5x    frame=14761 fps=469 q=-0.0 size=N/A time=00:10:15.65 bitrate=N/A speed=19.6x    frame=15029 fps=470 q=-0.0 size=N/A time=00:10:26.83 bitrate=N/A speed=19.6x    frame=15292 fps=471 q=-0.0 size=N/A time=00:10:37.80 bitrate=N/A speed=19.6x    frame=15576 fps=472 q=-0.0 size=N/A time=00:10:49.69 bitrate=N/A speed=19.7x    frame=15851 fps=473 q=-0.0 size=N/A time=00:11:01.11 bitrate=N/A speed=19.7x    frame=16110 fps=473 q=-0.0 size=N/A time=00:11:11.92 bitrate=N/A speed=19.7x    frame=16372 fps=474 q=-0.0 size=N/A time=00:11:22.84 bitrate=N/A speed=19.8x    frame=16637 fps=474 q=-0.0 size=N/A time=00:11:33.90 bitrate=N/A speed=19.8x    frame=16916 fps=475 q=-0.0 size=N/A time=00:11:45.53 bitrate=N/A speed=19.8x    frame=17185 fps=476 q=-0.0 size=N/A time=00:11:56.75 bitrate=N/A speed=19.9x    frame=17428 fps=476 q=-0.0 size=N/A time=00:12:06.89 bitrate=N/A speed=19.8x    frame=17703 fps=477 q=-0.0 size=N/A time=00:12:18.36 bitrate=N/A speed=19.9x    frame=17965 fps=477 q=-0.0 size=N/A time=00:12:29.29 bitrate=N/A speed=19.9x    frame=18242 fps=478 q=-0.0 size=N/A time=00:12:40.84 bitrate=N/A speed=19.9x    frame=18475 fps=478 q=-0.0 size=N/A time=00:12:50.56 bitrate=N/A speed=19.9x    frame=18763 fps=479 q=-0.0 size=N/A time=00:13:02.57 bitrate=N/A speed=  20x    frame=19052 fps=480 q=-0.0 size=N/A time=00:13:14.62 bitrate=N/A speed=  20x    frame=19324 fps=480 q=-0.0 size=N/A time=00:13:25.97 bitrate=N/A speed=  20x    frame=19608 fps=481 q=-0.0 size=N/A time=00:13:37.81 bitrate=N/A speed=20.1x    frame=19881 fps=482 q=-0.0 size=N/A time=00:13:49.20 bitrate=N/A speed=20.1x    frame=20144 fps=482 q=-0.0 size=N/A time=00:14:00.17 bitrate=N/A speed=20.1x    frame=20429 fps=483 q=-0.0 size=N/A time=00:14:12.05 bitrate=N/A speed=20.1x    frame=20705 fps=483 q=-0.0 size=N/A time=00:14:23.57 bitrate=N/A speed=20.2x    frame=20922 fps=483 q=-0.0 size=N/A time=00:14:32.62 bitrate=N/A speed=20.1x    frame=21173 fps=483 q=-0.0 size=N/A time=00:14:43.09 bitrate=N/A speed=20.1x    frame=21446 fps=483 q=-0.0 size=N/A time=00:14:54.47 bitrate=N/A speed=20.2x    frame=21723 fps=484 q=-0.0 size=N/A time=00:15:06.03 bitrate=N/A speed=20.2x    frame=21921 fps=483 q=-0.0 size=N/A time=00:15:14.28 bitrate=N/A speed=20.1x    frame=22122 fps=482 q=-0.0 size=N/A time=00:15:22.67 bitrate=N/A speed=20.1x    frame=22344 fps=481 q=-0.0 size=N/A time=00:15:31.93 bitrate=N/A speed=20.1x    frame=22555 fps=480 q=-0.0 size=N/A time=00:15:40.73 bitrate=N/A speed=  20x    frame=22840 fps=481 q=-0.0 size=N/A time=00:15:52.61 bitrate=N/A speed=20.1x    frame=23021 fps=480 q=-0.0 size=N/A time=00:16:00.16 bitrate=N/A speed=  20x    frame=23200 fps=478 q=-0.0 size=N/A time=00:16:07.63 bitrate=N/A speed=  20x    frame=23376 fps=477 q=-0.0 size=N/A time=00:16:14.97 bitrate=N/A speed=19.9x    frame=23515 fps=475 q=-0.0 size=N/A time=00:16:20.77 bitrate=N/A speed=19.8x    frame=23754 fps=475 q=-0.0 size=N/A time=00:16:30.73 bitrate=N/A speed=19.8x    frame=23878 fps=472 q=-0.0 size=N/A time=00:16:35.91 bitrate=N/A speed=19.7x    frame=24002 fps=470 q=-0.0 size=N/A time=00:16:41.08 bitrate=N/A speed=19.6x    frame=24150 fps=468 q=-0.0 size=N/A time=00:16:47.25 bitrate=N/A speed=19.5x    frame=24246 fps=465 q=-0.0 size=N/A time=00:16:51.26 bitrate=N/A speed=19.4x    frame=24457 fps=465 q=-0.0 size=N/A time=00:17:00.06 bitrate=N/A speed=19.4x    frame=24623 fps=463 q=-0.0 size=N/A time=00:17:06.98 bitrate=N/A speed=19.3x    frame=24874 fps=464 q=-0.0 size=N/A time=00:17:17.45 bitrate=N/A speed=19.3x    frame=25117 fps=464 q=-0.0 size=N/A time=00:17:27.58 bitrate=N/A speed=19.3x    frame=25391 fps=464 q=-0.0 size=N/A time=00:17:39.01 bitrate=N/A speed=19.4x    frame=25663 fps=465 q=-0.0 size=N/A time=00:17:50.36 bitrate=N/A speed=19.4x    frame=25932 fps=465 q=-0.0 size=N/A time=00:18:01.58 bitrate=N/A speed=19.4x    frame=26152 fps=465 q=-0.0 size=N/A time=00:18:10.75 bitrate=N/A speed=19.4x    frame=26371 fps=465 q=-0.0 size=N/A time=00:18:19.89 bitrate=N/A speed=19.4x    frame=26577 fps=464 q=-0.0 size=N/A time=00:18:28.48 bitrate=N/A speed=19.4x    frame=26762 fps=463 q=-0.0 size=N/A time=00:18:36.19 bitrate=N/A speed=19.3x    frame=26912 fps=462 q=-0.0 size=N/A time=00:18:42.45 bitrate=N/A speed=19.3x    frame=27113 fps=461 q=-0.0 size=N/A time=00:18:50.83 bitrate=N/A speed=19.2x    frame=27318 fps=460 q=-0.0 size=N/A time=00:18:59.38 bitrate=N/A speed=19.2x    frame=27491 fps=459 q=-0.0 size=N/A time=00:19:06.60 bitrate=N/A speed=19.2x    frame=27704 fps=459 q=-0.0 size=N/A time=00:19:15.48 bitrate=N/A speed=19.1x    frame=27968 fps=459 q=-0.0 size=N/A time=00:19:26.49 bitrate=N/A speed=19.2x    frame=28225 fps=460 q=-0.0 size=N/A time=00:19:37.21 bitrate=N/A speed=19.2x    frame=28464 fps=460 q=-0.0 size=N/A time=00:19:47.18 bitrate=N/A speed=19.2x    frame=28720 fps=460 q=-0.0 size=N/A time=00:19:57.86 bitrate=N/A speed=19.2x    frame=29004 fps=461 q=-0.0 size=N/A time=00:20:09.70 bitrate=N/A speed=19.2x    frame=29282 fps=461 q=-0.0 size=N/A time=00:20:21.30 bitrate=N/A speed=19.2x    frame=29547 fps=462 q=-0.0 size=N/A time=00:20:32.35 bitrate=N/A speed=19.3x    frame=29763 fps=462 q=-0.0 size=N/A time=00:20:41.36 bitrate=N/A speed=19.3x    frame=30023 fps=462 q=-0.0 size=N/A time=00:20:52.20 bitrate=N/A speed=19.3x    frame=30283 fps=462 q=-0.0 size=N/A time=00:21:03.05 bitrate=N/A speed=19.3x    frame=30548 fps=463 q=-0.0 size=N/A time=00:21:14.10 bitrate=N/A speed=19.3x    frame=30814 fps=463 q=-0.0 size=N/A time=00:21:25.20 bitrate=N/A speed=19.3x    frame=31061 fps=463 q=-0.0 size=N/A time=00:21:35.50 bitrate=N/A speed=19.3x    frame=31280 fps=463 q=-0.0 size=N/A time=00:21:44.63 bitrate=N/A speed=19.3x    frame=31523 fps=463 q=-0.0 size=N/A time=00:21:54.77 bitrate=N/A speed=19.3x    frame=31772 fps=463 q=-0.0 size=N/A time=00:22:05.19 bitrate=N/A speed=19.3x    frame=32012 fps=463 q=-0.0 size=N/A time=00:22:15.16 bitrate=N/A speed=19.3x    frame=32256 fps=463 q=-0.0 size=N/A time=00:22:25.34 bitrate=N/A speed=19.3x    frame=32506 fps=463 q=-0.0 size=N/A time=00:22:35.77 bitrate=N/A speed=19.3x    frame=32774 fps=464 q=-0.0 size=N/A time=00:22:46.94 bitrate=N/A speed=19.3x    frame=33030 fps=464 q=-0.0 size=N/A time=00:22:57.62 bitrate=N/A speed=19.3x    frame=33270 fps=464 q=-0.0 size=N/A time=00:23:07.63 bitrate=N/A speed=19.3x    frame=33530 fps=464 q=-0.0 size=N/A time=00:23:18.48 bitrate=N/A speed=19.4x    frame=33796 fps=465 q=-0.0 size=N/A time=00:23:29.57 bitrate=N/A speed=19.4x    frame=34034 fps=465 q=-0.0 size=N/A time=00:23:39.50 bitrate=N/A speed=19.4x    frame=34293 fps=465 q=-0.0 size=N/A time=00:23:50.30 bitrate=N/A speed=19.4x    frame=34550 fps=465 q=-0.0 size=N/A time=00:24:01.02 bitrate=N/A speed=19.4x    [Parsed_psnr_10 @ 000001a7814055c0] PSNR y:48.388365 u:50.176643 v:50.191610 average:48.908574 min:33.602145 max:inf
[out#0/null @ 000001a7fa6806c0] video:14878KiB audio:270796KiB subtitle:0KiB other streams:0KiB global headers:0KiB muxing overhead: unknown
frame=34625 fps=465 q=-0.0 Lsize=N/A time=00:24:04.15 bitrate=N/A speed=19.4x    
